<svg xmlns="http://www.w3.org/2000/svg" viewBox="0 0 48 48" fill="none">
  <path d="M24 8C24 8 16 16 16 24C16 28.418 19.582 32 24 32C28.418 32 32 28.418 32 24C32 16 24 8 24 8Z" fill="#FF6B9D"/>
  <path d="M24 32C24 32 18 38 18 42C18 44.209 19.791 46 22 46H26C28.209 46 30 44.209 30 42C30 38 24 32 24 32Z" fill="#C44569"/>
  <circle cx="24" cy="22" r="5" fill="#FFD700"/>
  <path d="M14 20C14 20 8 24 8 28C8 30.209 9.791 32 12 32C14.209 32 16 30.209 16 28C16 24 14 20 14 20Z" fill="#FF6B9D" opacity="0.8"/>
  <path d="M34 20C34 20 40 24 40 28C40 30.209 38.209 32 36 32C33.791 32 32 30.209 32 28C32 24 34 20 34 20Z" fill="#FF6B9D" opacity="0.8"/>
</svg>
